<svg xmlns="http://www.w3.org/2000/svg" xmlns:xlink="http://www.w3.org/1999/xlink" width="500" zoomAndPan="magnify" viewBox="0 0 375 374.999991" height="500" preserveAspectRatio="xMidYMid meet" version="1.0"><defs><clipPath id="971e7f9c8f"><path d="M 17.253906 9.484375 L 357.753906 9.484375 L 357.753906 365.734375 L 17.253906 365.734375 Z M 17.253906 9.484375 " clip-rule="nonzero"/></clipPath></defs><path fill="#e2dccc" d="M 266.15625 299.449219 C 295.859375 299.449219 323.605469 290.457031 346.664062 275.207031 C 316.375 327.214844 260.292969 362.019531 195.808594 362.019531 C 99.46875 362.019531 21.5 283.808594 21.5 187.609375 C 21.5 91.214844 99.46875 13.199219 195.808594 13.199219 C 204.40625 13.199219 212.808594 13.785156 221.015625 14.960938 C 162.585938 33.925781 120.378906 88.867188 120.378906 153.585938 C 120.378906 234.144531 185.644531 299.449219 266.15625 299.449219 Z M 266.15625 299.449219 " fill-opacity="1" fill-rule="nonzero"/><path fill="#c6baa3" d="M 346.46875 275.207031 C 323.410156 290.457031 295.664062 299.449219 265.960938 299.449219 C 185.449219 299.449219 120.183594 234.144531 120.183594 153.585938 C 120.183594 153.585938 106.113281 252.71875 160.046875 293 C 213.003906 332.496094 287.847656 333.082031 346.46875 275.207031 Z M 346.46875 275.207031 " fill-opacity="1" fill-rule="nonzero"/><g clip-path="url(#971e7f9c8f)"><path fill="#000000" d="M 195.808594 365.734375 C 97.710938 365.734375 17.789062 285.765625 17.789062 187.609375 C 17.789062 89.453125 97.710938 9.484375 195.808594 9.484375 C 204.210938 9.484375 212.808594 10.070312 221.40625 11.441406 L 236.648438 13.589844 L 221.992188 18.28125 C 163.367188 37.445312 123.894531 91.800781 123.894531 153.585938 C 123.894531 231.992188 187.601562 295.734375 265.960938 295.734375 C 294.097656 295.734375 321.066406 287.523438 344.320312 272.078125 L 357.21875 263.472656 L 349.402344 276.769531 C 317.742188 331.710938 258.925781 365.734375 195.808594 365.734375 Z M 195.808594 16.71875 C 101.617188 16.71875 25.019531 93.367188 25.019531 187.609375 C 25.019531 281.851562 101.617188 358.5 195.808594 358.5 C 251.304688 358.5 303.480469 331.125 335.332031 286.15625 C 314.03125 297.300781 290.386719 303.164062 266.15625 303.164062 C 183.886719 303.164062 116.859375 236.101562 116.859375 153.78125 C 116.859375 93.953125 152.035156 40.964844 205.578125 17.109375 C 202.253906 16.71875 198.933594 16.71875 195.808594 16.71875 Z M 195.808594 16.71875 " fill-opacity="1" fill-rule="nonzero"/></g></svg>