<svg xmlns="http://www.w3.org/2000/svg" xmlns:xlink="http://www.w3.org/1999/xlink" width="500" zoomAndPan="magnify" viewBox="0 0 375 374.999991" height="500" preserveAspectRatio="xMidYMid meet" version="1.0"><defs><clipPath id="52541d4d17"><path d="M 11.71875 35 L 327 35 L 327 375 L 11.71875 375 Z M 11.71875 35 " clip-rule="nonzero"/></clipPath><clipPath id="f76514aed3"><path d="M 228 164 L 363.46875 164 L 363.46875 282 L 228 282 Z M 228 164 " clip-rule="nonzero"/></clipPath></defs><g clip-path="url(#52541d4d17)"><path fill="#000000" d="M 323.074219 234.199219 C 320.085938 233.027344 316.6875 234.492188 315.453125 237.480469 C 307.890625 256.582031 297.339844 274.21875 283.914062 289.804688 L 259.351562 318.457031 C 258.414062 319.511719 257.945312 320.859375 257.945312 322.265625 L 257.945312 363.28125 L 128.96875 363.28125 L 128.96875 328.125 L 182.609375 328.125 C 191.582031 328.125 199.613281 323.144531 203.597656 315.175781 L 210.457031 301.464844 C 211.921875 298.59375 210.75 295.078125 207.820312 293.613281 C 204.945312 292.148438 201.429688 293.320312 199.964844 296.25 L 193.105469 309.960938 C 191.109375 313.945312 187.066406 316.464844 182.609375 316.464844 L 76.207031 316.464844 C 66.53125 316.464844 58.617188 308.554688 58.617188 298.886719 L 58.617188 252.011719 C 58.617188 248.789062 55.980469 246.152344 52.757812 246.152344 L 35.578125 246.152344 C 28.894531 246.152344 23.445312 240.703125 23.445312 234.023438 C 23.445312 231.621094 24.148438 229.277344 25.496094 227.285156 L 57.621094 179.0625 C 58.265625 178.125 58.617188 176.953125 58.617188 175.839844 L 58.617188 169.980469 C 58.617188 116.191406 90.570312 67.558594 139.992188 46.230469 C 142.980469 44.941406 144.328125 41.484375 143.039062 38.554688 C 141.75 35.625 138.289062 34.21875 135.359375 35.507812 C 81.660156 58.710938 46.894531 111.503906 46.894531 170.039062 L 46.894531 174.140625 L 15.707031 220.839844 C 13.066406 224.765625 11.71875 229.335938 11.71875 234.082031 C 11.71875 247.207031 22.445312 257.929688 35.578125 257.929688 L 46.894531 257.929688 L 46.894531 298.945312 C 46.894531 315.117188 60.027344 328.242188 76.207031 328.242188 L 117.242188 328.242188 L 117.242188 369.257812 C 117.242188 372.480469 119.882812 375.117188 123.105469 375.117188 L 263.804688 375.117188 C 267.03125 375.117188 269.667969 372.480469 269.667969 369.257812 L 269.667969 324.550781 L 292.824219 297.539062 C 307.070312 280.957031 318.328125 262.207031 326.359375 241.875 C 327.53125 238.886719 326.066406 235.488281 323.074219 234.257812 Z M 323.074219 234.199219 " fill-opacity="1" fill-rule="nonzero"/></g><path fill="#000000" d="M 211.042969 134.765625 L 164.144531 134.765625 C 160.917969 134.765625 158.28125 137.402344 158.28125 140.625 C 158.28125 143.847656 160.917969 146.484375 164.144531 146.484375 L 205.179688 146.484375 L 205.179688 164.0625 C 205.179688 167.285156 207.820312 169.921875 211.042969 169.921875 C 214.269531 169.921875 216.90625 167.285156 216.90625 164.0625 L 216.90625 140.625 C 216.90625 137.402344 214.269531 134.765625 211.042969 134.765625 Z M 211.042969 134.765625 " fill-opacity="1" fill-rule="nonzero"/><path fill="#000000" d="M 211.042969 181.640625 L 170.007812 181.640625 L 170.007812 164.0625 C 170.007812 160.839844 167.367188 158.203125 164.144531 158.203125 C 160.917969 158.203125 158.28125 160.839844 158.28125 164.0625 L 158.28125 187.5 C 158.28125 190.722656 160.917969 193.359375 164.144531 193.359375 L 211.042969 193.359375 C 214.269531 193.359375 216.90625 190.722656 216.90625 187.5 C 216.90625 184.277344 214.269531 181.640625 211.042969 181.640625 Z M 211.042969 181.640625 " fill-opacity="1" fill-rule="nonzero"/><path fill="#000000" d="M 193.457031 164.0625 C 193.457031 164.445312 193.417969 164.828125 193.34375 165.207031 C 193.269531 165.582031 193.15625 165.949219 193.011719 166.304688 C 192.863281 166.660156 192.683594 166.996094 192.46875 167.316406 C 192.253906 167.636719 192.011719 167.933594 191.738281 168.207031 C 191.46875 168.476562 191.171875 168.71875 190.851562 168.933594 C 190.53125 169.148438 190.191406 169.328125 189.835938 169.476562 C 189.480469 169.625 189.113281 169.734375 188.738281 169.808594 C 188.359375 169.882812 187.980469 169.921875 187.59375 169.921875 C 187.207031 169.921875 186.828125 169.882812 186.449219 169.808594 C 186.074219 169.734375 185.707031 169.625 185.351562 169.476562 C 184.996094 169.328125 184.65625 169.148438 184.335938 168.933594 C 184.015625 168.71875 183.71875 168.476562 183.449219 168.207031 C 183.175781 167.933594 182.933594 167.636719 182.71875 167.316406 C 182.503906 166.996094 182.324219 166.660156 182.175781 166.304688 C 182.03125 165.949219 181.917969 165.582031 181.84375 165.207031 C 181.769531 164.828125 181.730469 164.445312 181.730469 164.0625 C 181.730469 163.679688 181.769531 163.296875 181.84375 162.917969 C 181.917969 162.542969 182.03125 162.175781 182.175781 161.820312 C 182.324219 161.464844 182.503906 161.128906 182.71875 160.808594 C 182.933594 160.488281 183.175781 160.191406 183.449219 159.917969 C 183.71875 159.648438 184.015625 159.40625 184.335938 159.191406 C 184.65625 158.976562 184.996094 158.796875 185.351562 158.648438 C 185.707031 158.5 186.074219 158.390625 186.449219 158.316406 C 186.828125 158.242188 187.207031 158.203125 187.59375 158.203125 C 187.980469 158.203125 188.359375 158.242188 188.738281 158.316406 C 189.113281 158.390625 189.480469 158.5 189.835938 158.648438 C 190.191406 158.796875 190.53125 158.976562 190.851562 159.191406 C 191.171875 159.40625 191.46875 159.648438 191.738281 159.917969 C 192.011719 160.191406 192.253906 160.488281 192.46875 160.808594 C 192.683594 161.128906 192.863281 161.464844 193.011719 161.820312 C 193.15625 162.175781 193.269531 162.542969 193.34375 162.917969 C 193.417969 163.296875 193.457031 163.679688 193.457031 164.0625 Z M 193.457031 164.0625 " fill-opacity="1" fill-rule="nonzero"/><path fill="#000000" d="M 263.804688 70.3125 C 263.804688 79.980469 271.71875 87.890625 281.394531 87.890625 C 282.859375 87.890625 284.265625 87.65625 285.671875 87.304688 L 299.976562 108.691406 C 301.089844 110.332031 302.910156 111.328125 304.84375 111.328125 L 317.625 111.328125 C 320.027344 118.125 326.476562 123.046875 334.15625 123.046875 C 343.828125 123.046875 351.742188 115.136719 351.742188 105.46875 C 351.742188 95.800781 343.828125 87.890625 334.15625 87.890625 C 326.535156 87.890625 320.085938 92.8125 317.625 99.609375 L 307.949219 99.609375 L 295.40625 80.800781 C 297.632812 77.871094 298.980469 74.238281 298.980469 70.3125 C 298.980469 60.644531 291.066406 52.734375 281.394531 52.734375 C 271.71875 52.734375 263.804688 60.644531 263.804688 70.3125 Z M 334.15625 99.609375 C 337.378906 99.609375 340.019531 102.246094 340.019531 105.46875 C 340.019531 108.691406 337.378906 111.328125 334.15625 111.328125 C 330.933594 111.328125 328.292969 108.691406 328.292969 105.46875 C 328.292969 102.246094 330.933594 99.609375 334.15625 99.609375 Z M 287.257812 70.3125 C 287.257812 73.535156 284.617188 76.171875 281.394531 76.171875 C 278.167969 76.171875 275.53125 73.535156 275.53125 70.3125 C 275.53125 67.089844 278.167969 64.453125 281.394531 64.453125 C 284.617188 64.453125 287.257812 67.089844 287.257812 70.3125 Z M 287.257812 70.3125 " fill-opacity="1" fill-rule="nonzero"/><g clip-path="url(#f76514aed3)"><path fill="#000000" d="M 345.882812 164.0625 C 336.207031 164.0625 328.292969 171.972656 328.292969 181.640625 C 328.292969 184.335938 328.9375 186.855469 330.050781 189.199219 L 296.578125 222.65625 L 246.21875 222.65625 C 242.996094 222.65625 240.355469 225.292969 240.355469 228.515625 L 240.355469 247.148438 C 233.554688 249.550781 228.632812 255.996094 228.632812 263.671875 C 228.632812 273.339844 236.546875 281.25 246.21875 281.25 C 255.890625 281.25 263.804688 273.339844 263.804688 263.671875 C 263.804688 256.054688 258.882812 249.609375 252.082031 247.148438 L 252.082031 234.375 L 298.980469 234.375 C 300.5625 234.375 302.03125 233.730469 303.144531 232.675781 L 338.378906 197.460938 C 340.664062 198.574219 343.183594 199.21875 345.941406 199.21875 C 355.613281 199.21875 363.527344 191.308594 363.527344 181.640625 C 363.527344 171.972656 355.613281 164.0625 345.941406 164.0625 Z M 246.21875 269.53125 C 242.996094 269.53125 240.355469 266.894531 240.355469 263.671875 C 240.355469 260.449219 242.996094 257.8125 246.21875 257.8125 C 249.441406 257.8125 252.082031 260.449219 252.082031 263.671875 C 252.082031 266.894531 249.441406 269.53125 246.21875 269.53125 Z M 345.882812 187.5 C 344.296875 187.5 342.832031 186.855469 341.777344 185.800781 C 341.777344 185.800781 341.777344 185.800781 341.777344 185.742188 C 341.777344 185.683594 341.777344 185.742188 341.71875 185.742188 C 340.664062 184.6875 340.019531 183.28125 340.019531 181.640625 C 340.019531 178.417969 342.65625 175.78125 345.882812 175.78125 C 349.105469 175.78125 351.742188 178.417969 351.742188 181.640625 C 351.742188 184.863281 349.105469 187.5 345.882812 187.5 Z M 345.882812 187.5 " fill-opacity="1" fill-rule="nonzero"/></g><path fill="#000000" d="M 158.28125 34.101562 L 158.28125 52.734375 C 158.28125 54.550781 159.160156 56.308594 160.625 57.421875 L 181.730469 73.242188 L 181.730469 111.328125 L 170.007812 111.328125 L 170.007812 87.890625 C 170.007812 84.667969 167.367188 82.03125 164.144531 82.03125 L 145.5 82.03125 C 143.097656 75.234375 136.648438 70.3125 128.96875 70.3125 C 119.296875 70.3125 111.382812 78.222656 111.382812 87.890625 C 111.382812 97.558594 119.296875 105.46875 128.96875 105.46875 C 136.589844 105.46875 143.039062 100.546875 145.5 93.75 L 158.28125 93.75 L 158.28125 111.328125 L 152.417969 111.328125 C 142.746094 111.328125 134.832031 119.238281 134.832031 128.90625 L 134.832031 134.765625 L 111.382812 134.765625 C 108.15625 134.765625 105.519531 137.402344 105.519531 140.625 C 105.519531 143.847656 108.15625 146.484375 111.382812 146.484375 L 134.832031 146.484375 L 134.832031 158.203125 L 99.65625 158.203125 C 96.433594 158.203125 93.792969 160.839844 93.792969 164.0625 C 93.792969 167.285156 96.433594 169.921875 99.65625 169.921875 L 134.832031 169.921875 L 134.832031 181.640625 L 123.105469 181.640625 C 119.882812 181.640625 117.242188 184.277344 117.242188 187.5 C 117.242188 190.722656 119.882812 193.359375 123.105469 193.359375 L 134.832031 193.359375 L 134.832031 199.21875 C 134.832031 208.886719 142.746094 216.796875 152.417969 216.796875 L 158.28125 216.796875 L 158.28125 240.234375 C 158.28125 243.457031 160.917969 246.09375 164.144531 246.09375 C 167.367188 246.09375 170.007812 243.457031 170.007812 240.234375 L 170.007812 216.796875 L 181.730469 216.796875 L 181.730469 251.953125 C 181.730469 255.175781 184.371094 257.8125 187.59375 257.8125 C 190.816406 257.8125 193.457031 255.175781 193.457031 251.953125 L 193.457031 216.796875 L 205.179688 216.796875 L 205.179688 228.515625 C 205.179688 231.738281 207.820312 234.375 211.042969 234.375 C 214.269531 234.375 216.90625 231.738281 216.90625 228.515625 L 216.90625 216.796875 L 222.769531 216.796875 C 232.441406 216.796875 240.355469 208.886719 240.355469 199.21875 L 259 199.21875 C 261.402344 206.015625 267.851562 210.9375 275.53125 210.9375 C 285.203125 210.9375 293.117188 203.027344 293.117188 193.359375 C 293.117188 192.304688 293 191.25 292.824219 190.253906 L 314.867188 168.222656 C 317.15625 165.9375 317.15625 162.246094 314.867188 159.960938 C 312.582031 157.675781 308.890625 157.675781 306.601562 159.960938 L 286.671875 179.882812 C 283.621094 177.363281 279.8125 175.839844 275.589844 175.839844 C 267.96875 175.839844 261.519531 180.761719 259.058594 187.558594 L 240.414062 187.558594 L 240.414062 140.683594 L 264.921875 140.683594 C 267.324219 147.480469 273.773438 152.402344 281.453125 152.402344 C 291.125 152.402344 299.039062 144.492188 299.039062 134.824219 C 299.039062 125.15625 291.125 117.246094 281.453125 117.246094 C 273.832031 117.246094 267.382812 122.167969 264.921875 128.964844 L 240.414062 128.964844 C 240.414062 121.347656 235.492188 114.902344 228.691406 112.441406 L 228.691406 98.554688 C 235.492188 96.152344 240.414062 89.707031 240.414062 82.03125 C 240.414062 74.355469 235.492188 67.96875 228.691406 65.507812 L 228.691406 60.996094 L 256.300781 33.398438 C 258.589844 34.511719 261.109375 35.15625 263.863281 35.15625 C 273.539062 35.15625 281.453125 27.246094 281.453125 17.578125 C 281.453125 7.910156 273.539062 0 263.863281 0 C 254.191406 0 246.277344 7.910156 246.277344 17.578125 C 246.277344 20.273438 246.921875 22.792969 248.035156 25.136719 L 218.664062 54.492188 C 217.550781 55.605469 216.964844 57.070312 216.964844 58.652344 L 216.964844 65.566406 C 210.164062 67.96875 205.238281 74.414062 205.238281 82.089844 C 205.238281 89.765625 210.164062 96.152344 216.964844 98.613281 L 216.964844 111.386719 L 193.515625 111.386719 L 193.515625 70.371094 C 193.515625 68.554688 192.636719 66.796875 191.167969 65.683594 L 170.066406 49.863281 L 170.066406 34.160156 C 176.867188 31.757812 181.789062 25.3125 181.789062 17.636719 C 181.789062 7.96875 173.875 0.0585938 164.203125 0.0585938 C 154.527344 0.0585938 146.613281 7.96875 146.613281 17.636719 C 146.613281 25.253906 151.539062 31.699219 158.339844 34.160156 Z M 128.96875 93.75 C 125.746094 93.75 123.105469 91.113281 123.105469 87.890625 C 123.105469 84.667969 125.746094 82.03125 128.96875 82.03125 C 132.191406 82.03125 134.832031 84.667969 134.832031 87.890625 C 134.832031 91.113281 132.191406 93.75 128.96875 93.75 Z M 275.53125 187.5 C 278.753906 187.5 281.394531 190.136719 281.394531 193.359375 C 281.394531 196.582031 278.753906 199.21875 275.53125 199.21875 C 272.308594 199.21875 269.667969 196.582031 269.667969 193.359375 C 269.667969 190.136719 272.308594 187.5 275.53125 187.5 Z M 281.394531 128.90625 C 284.617188 128.90625 287.257812 131.542969 287.257812 134.765625 C 287.257812 137.988281 284.617188 140.625 281.394531 140.625 C 278.167969 140.625 275.53125 137.988281 275.53125 134.765625 C 275.53125 131.542969 278.167969 128.90625 281.394531 128.90625 Z M 263.804688 11.71875 C 267.03125 11.71875 269.667969 14.355469 269.667969 17.578125 C 269.667969 20.800781 267.03125 23.4375 263.804688 23.4375 C 262.222656 23.4375 260.757812 22.792969 259.703125 21.738281 C 259.703125 21.738281 259.703125 21.738281 259.703125 21.679688 C 259.703125 21.621094 259.703125 21.679688 259.644531 21.679688 C 258.589844 20.625 257.945312 19.21875 257.945312 17.578125 C 257.945312 14.355469 260.582031 11.71875 263.804688 11.71875 Z M 228.632812 199.21875 C 228.632812 202.441406 225.992188 205.078125 222.769531 205.078125 L 152.417969 205.078125 C 149.195312 205.078125 146.554688 202.441406 146.554688 199.21875 L 146.554688 128.90625 C 146.554688 125.683594 149.195312 123.046875 152.417969 123.046875 L 222.769531 123.046875 C 225.992188 123.046875 228.632812 125.683594 228.632812 128.90625 Z M 222.769531 76.171875 C 225.992188 76.171875 228.632812 78.808594 228.632812 82.03125 C 228.632812 85.253906 225.992188 87.890625 222.769531 87.890625 C 219.542969 87.890625 216.90625 85.253906 216.90625 82.03125 C 216.90625 78.808594 219.542969 76.171875 222.769531 76.171875 Z M 164.144531 11.71875 C 167.367188 11.71875 170.007812 14.355469 170.007812 17.578125 C 170.007812 20.800781 167.367188 23.4375 164.144531 23.4375 C 160.917969 23.4375 158.28125 20.800781 158.28125 17.578125 C 158.28125 14.355469 160.917969 11.71875 164.144531 11.71875 Z M 164.144531 11.71875 " fill-opacity="1" fill-rule="nonzero"/></svg>