<svg xmlns="http://www.w3.org/2000/svg" xmlns:xlink="http://www.w3.org/1999/xlink" width="500" zoomAndPan="magnify" viewBox="0 0 375 374.999991" height="500" preserveAspectRatio="xMidYMid meet" version="1.0"><path fill="#100f0d" d="M 331.25 307.984375 L 331.25 272.386719 L 362.5 254.515625 L 362.5 290.113281 Z M 287.5 254.515625 L 318.75 272.386719 L 318.75 307.984375 L 287.5 290.113281 Z M 234.351562 288.328125 L 193.75 265.113281 L 193.75 241.136719 L 234.351562 217.917969 C 236.304688 216.820312 237.5 214.746094 237.5 212.5 L 237.5 162.5 C 237.5 160.253906 236.304688 158.179688 234.351562 157.078125 L 193.75 133.863281 L 193.75 109.886719 L 231.445312 88.328125 L 275 110.105469 L 275 131.25 C 275 133.496094 276.195312 135.570312 278.148438 136.667969 L 318.75 159.886719 L 318.75 215.113281 L 278.148438 238.328125 C 276.195312 239.429688 275 241.503906 275 243.75 L 275 290.28125 L 237.5 313.71875 L 237.5 293.75 C 237.5 291.503906 236.304688 289.429688 234.351562 288.328125 Z M 193.75 357.984375 L 193.75 322.386719 L 225 304.515625 L 225 340.113281 Z M 150 304.515625 L 181.25 322.386719 L 181.25 357.984375 L 150 340.113281 Z M 100 290.28125 L 100 243.75 C 100 241.503906 98.804688 239.429688 96.851562 238.328125 L 56.25 215.113281 L 56.25 159.886719 L 96.851562 136.667969 C 98.804688 135.570312 100 133.496094 100 131.25 L 100 110.105469 L 143.554688 88.328125 L 181.25 109.886719 L 181.25 133.863281 L 140.648438 157.078125 C 138.695312 158.179688 137.5 160.253906 137.5 162.5 L 137.5 212.5 C 137.5 214.746094 138.695312 216.820312 140.648438 217.917969 L 181.25 241.136719 L 181.25 265.113281 L 140.648438 288.328125 C 138.695312 289.429688 137.5 291.503906 137.5 293.75 L 137.5 313.71875 Z M 56.25 307.984375 L 56.25 272.386719 L 87.5 254.515625 L 87.5 290.113281 Z M 12.5 254.515625 L 43.75 272.386719 L 43.75 307.984375 L 12.5 290.113281 Z M 50 261.546875 L 18.847656 243.75 L 50 225.953125 L 81.152344 243.75 Z M 12.5 92.015625 L 43.75 109.886719 L 43.75 145.484375 L 12.5 127.613281 Z M 50 63.453125 L 81.152344 81.25 L 50 99.046875 L 18.847656 81.25 Z M 56.25 109.886719 L 87.5 92.015625 L 87.5 127.613281 L 56.25 145.484375 Z M 187.5 13.453125 L 218.652344 31.25 L 187.5 49.046875 L 156.347656 31.25 Z M 193.75 59.886719 L 225 42.015625 L 225 77.613281 L 193.75 95.484375 Z M 150 42.015625 L 181.25 59.886719 L 181.25 95.484375 L 150 77.613281 Z M 187.5 180.296875 L 156.347656 162.5 L 187.5 144.703125 L 218.652344 162.5 Z M 193.75 191.136719 L 225 173.265625 L 225 208.863281 L 193.75 226.734375 Z M 150 173.265625 L 181.25 191.136719 L 181.25 226.734375 L 150 208.863281 Z M 187.5 311.546875 L 156.347656 293.75 L 187.5 275.953125 L 218.652344 293.75 Z M 325 63.453125 L 356.152344 81.25 L 325 99.046875 L 293.847656 81.25 Z M 287.5 92.015625 L 318.75 109.886719 L 318.75 145.484375 L 287.5 127.613281 Z M 325 261.546875 L 293.847656 243.75 L 325 225.953125 L 356.152344 243.75 Z M 331.25 145.484375 L 331.25 109.886719 L 362.5 92.015625 L 362.5 127.613281 Z M 371.851562 136.667969 C 373.804688 135.570312 375 133.496094 375 131.25 L 375 81.25 C 375 79.003906 373.804688 76.929688 371.851562 75.828125 L 328.101562 50.828125 C 326.195312 49.730469 323.804688 49.730469 321.898438 50.828125 L 278.148438 75.828125 C 276.195312 76.929688 275 79.003906 275 81.25 L 275 96.140625 L 237.5 77.390625 L 237.5 31.25 C 237.5 29.003906 236.304688 26.929688 234.351562 25.828125 L 190.601562 0.828125 C 188.695312 -0.269531 186.304688 -0.269531 184.398438 0.828125 L 140.648438 25.828125 C 138.695312 26.929688 137.5 29.003906 137.5 31.25 L 137.5 77.390625 L 100 96.140625 L 100 81.25 C 100 79.003906 98.804688 76.929688 96.851562 75.828125 L 53.101562 50.828125 C 51.195312 49.730469 48.828125 49.730469 46.898438 50.828125 L 3.148438 75.828125 C 1.195312 76.929688 0 79.003906 0 81.25 L 0 131.25 C 0 133.496094 1.195312 135.570312 3.148438 136.667969 L 43.75 159.886719 L 43.75 215.113281 L 3.148438 238.328125 C 1.195312 239.429688 0 241.503906 0 243.75 L 0 293.75 C 0 295.996094 1.195312 298.070312 3.148438 299.167969 L 46.898438 324.167969 C 47.851562 324.730469 48.925781 325 50 325 C 51.074219 325 52.148438 324.730469 53.101562 324.167969 L 93.601562 301.023438 L 137.5 328.464844 L 137.5 343.75 C 137.5 345.996094 138.695312 348.070312 140.648438 349.167969 L 184.398438 374.167969 C 185.351562 374.730469 186.425781 375 187.5 375 C 188.574219 375 189.648438 374.730469 190.601562 374.167969 L 234.351562 349.167969 C 236.304688 348.070312 237.5 345.996094 237.5 343.75 L 237.5 328.464844 L 281.394531 301.023438 L 321.898438 324.167969 C 322.851562 324.730469 323.925781 325 325 325 C 326.074219 325 327.148438 324.730469 328.101562 324.167969 L 371.851562 299.167969 C 373.804688 298.070312 375 295.996094 375 293.75 L 375 243.75 C 375 241.503906 373.804688 239.429688 371.851562 238.328125 L 331.25 215.113281 L 331.25 159.886719 L 371.851562 136.667969 " fill-opacity="1" fill-rule="nonzero"/></svg>