<svg xmlns="http://www.w3.org/2000/svg" xmlns:xlink="http://www.w3.org/1999/xlink" width="500" zoomAndPan="magnify" viewBox="0 0 375 374.999991" height="500" preserveAspectRatio="xMidYMid meet" version="1.0"><path fill="#000000" d="M 265 207.75 L 106 207.75 C 87 207.75 71.5 192.25 71.5 173.25 C 71.5 156.75 83.25 142.5 99.5 139.5 C 108.5 137.75 117.5 139.75 125 144.75 C 129.25 147.5 132.75 151.5 135.5 155.75 C 136.5 157.5 138.5 158.5 140.5 158.5 C 141.5 158.5 142.5 158.25 143.5 157.75 C 146.25 156.25 147 152.75 145.5 150 C 142 144.25 137.25 139.25 131.5 135.5 C 124 130.5 115.25 127.75 106.25 127.75 C 105.75 127.75 105.25 127.75 104.75 127.75 C 106.25 116.75 114.75 107.75 126 105.75 C 127.5 105.5 129 105.25 130.5 105.25 C 137.5 105.25 144 108 148.75 112.75 C 149.75 113.75 151.25 114.5 152.75 114.5 C 154.25 114.5 155.75 114 156.75 112.75 C 159 110.5 159 107 156.75 104.75 C 150.75 98.75 143 95 134.75 94 C 141.75 84 153.25 78 165.75 78 C 179 78 191.25 84.75 198.25 95.75 C 185.75 99.5 175 108.5 169 120.5 C 167.5 123.25 168.75 126.75 171.5 128.25 C 172.25 128.75 173.25 128.75 174 128.75 C 176 128.75 178 127.5 179 125.5 C 184.5 114.5 195 107 207.25 105.25 C 209 105 210.75 105 212.25 105 C 226.5 105 239.25 113 245.5 125.5 C 238.5 128.5 232.25 133.25 227.25 139.25 C 225.5 139 223.75 139 221.75 139 C 196 139 175 160 175 185.75 C 175 189 177.5 191.5 180.75 191.5 C 184 191.5 186.5 189 186.5 185.75 C 186.5 166.25 202.25 150.25 222 150.25 C 241.5 150.25 257.5 166 257.5 185.75 C 257.5 189 260 191.5 263.25 191.5 C 266.5 191.5 269 189 269 185.75 C 269 166.25 257 149.75 240.25 142.5 C 244.5 138.75 249.5 136 255 134.25 C 258.25 133.25 261.75 132.75 265.25 132.75 C 285.75 132.75 302.5 149.5 302.5 170 C 302.25 191.25 285.5 207.75 265 207.75 Z M 265 122 C 262.25 122 259.5 122.25 256.75 122.75 C 249 105.5 231.75 94 212.5 94 C 211.75 94 211 94 210 94 C 201.5 77.5 184.5 67 165.75 67 C 146.5 67 129.25 78 121 95.25 C 105.25 99.25 93.75 113.25 93 129.5 C 73.75 135.25 60.5 153 60.5 173.25 C 60.5 198.5 81 219 106.25 219 L 265 219 C 291.75 219 313.5 197.25 313.5 170.5 C 313.5 143.75 291.75 122 265 122 Z M 265 122 " fill-opacity="1" fill-rule="nonzero"/><path fill="#000000" d="M 291.25 309.75 C 290 309.75 289 310 288 310.25 L 258.25 280.75 L 258.25 234.75 C 258.25 231.5 255.75 229 252.5 229 C 249.25 229 246.75 231.5 246.75 234.75 L 246.75 283 C 246.75 284.5 247.25 286 248.5 287 L 279.75 318 C 279.5 319 279.25 320 279.25 321.25 C 279.25 327.75 284.5 333 291 333 C 297.5 333 302.75 327.75 302.75 321.25 C 303 315 297.75 309.75 291.25 309.75 Z M 291.25 309.75 " fill-opacity="1" fill-rule="nonzero"/><path fill="#000000" d="M 257.75 335.75 C 256.5 335.75 255.5 336 254.5 336.25 L 224.75 306.75 L 224.75 234.75 C 224.75 231.5 222.25 229 219 229 C 215.75 229 213.25 231.5 213.25 234.75 L 213.25 309.25 C 213.25 310.75 213.75 312.25 215 313.25 L 246.25 344.25 C 246 345.25 245.75 346.25 245.75 347.5 C 245.75 354 251 359.25 257.5 359.25 C 264 359.25 269.25 354 269.25 347.5 C 269.5 341 264.25 335.75 257.75 335.75 Z M 257.75 335.75 " fill-opacity="1" fill-rule="nonzero"/><path fill="#000000" d="M 79.75 309.75 C 81 309.75 82 310 83 310.25 L 112.75 280.75 L 112.75 234.75 C 112.75 231.5 115.25 229 118.5 229 C 121.75 229 124.25 231.5 124.25 234.75 L 124.25 283 C 124.25 284.5 123.75 286 122.5 287 L 91.25 318 C 91.5 319 91.75 320 91.75 321.25 C 91.75 327.75 86.5 333 80 333 C 73.5 333 68.25 327.75 68.25 321.25 C 68 315 73.25 309.75 79.75 309.75 Z M 79.75 309.75 " fill-opacity="1" fill-rule="nonzero"/><path fill="#000000" d="M 113.25 335.75 C 114.5 335.75 115.5 336 116.5 336.25 L 146.25 306.75 L 146.25 234.75 C 146.25 231.5 148.75 229 152 229 C 155.25 229 157.75 231.5 157.75 234.75 L 157.75 309.25 C 157.75 310.75 157.25 312.25 156 313.25 L 124.75 344.25 C 125 345.25 125.25 346.25 125.25 347.5 C 125.25 354 120 359.25 113.5 359.25 C 107 359.25 101.75 354 101.75 347.5 C 101.5 341 106.75 335.75 113.25 335.75 Z M 113.25 335.75 " fill-opacity="1" fill-rule="nonzero"/><path fill="#000000" d="M 191.25 353 L 191.25 236.25 C 191.25 233 188.75 230.5 185.5 230.5 C 182.25 230.5 179.75 233 179.75 236.25 L 179.75 353 C 176.25 355 173.75 358.75 173.75 363.25 C 173.75 369.75 179 375 185.5 375 C 192 375 197.25 369.75 197.25 363.25 C 197.25 359 194.75 355 191.25 353 Z M 191.25 353 " fill-opacity="1" fill-rule="nonzero"/><path fill="#000000" d="M 317.25 53.75 C 282.5 19 236.5 0 187.5 0 C 138.5 0 92.5 19 57.75 53.75 C 23 88.5 4 134.5 4 183.5 C 4 223.75 16.75 262.25 41.25 294.25 C 43.25 296.75 46.75 297.25 49.25 295.25 C 51.75 293.25 52.25 289.75 50.25 287.25 C 27.5 257.25 15.25 221.25 15.25 183.25 C 15.25 88.25 92.5 11 187.5 11 C 282.5 11 359.75 88.25 359.75 183.25 C 359.75 221 347.75 257 324.75 287.25 C 322.75 289.75 323.25 293.25 325.75 295.25 C 326.75 296 328 296.5 329.25 296.5 C 331 296.5 332.75 295.75 333.75 294.25 C 358 262.25 371 223.75 371 183.5 C 371 134.5 352 88.5 317.25 53.75 Z M 317.25 53.75 " fill-opacity="1" fill-rule="nonzero"/></svg>