<svg xmlns="http://www.w3.org/2000/svg" xmlns:xlink="http://www.w3.org/1999/xlink" width="500" zoomAndPan="magnify" viewBox="0 0 375 374.999991" height="500" preserveAspectRatio="xMidYMid meet" version="1.0"><defs><clipPath id="4d8cdc4a4e"><path d="M 31.171875 0 L 343.921875 0 L 343.921875 375 L 31.171875 375 Z M 31.171875 0 " clip-rule="nonzero"/></clipPath></defs><g clip-path="url(#4d8cdc4a4e)"><path fill="#000000" d="M 187.546875 0 C 99.910156 0 31.25 30.890625 31.25 70.3125 L 31.25 304.6875 C 31.25 344.109375 99.910156 375 187.546875 375 C 275.183594 375 343.84375 344.109375 343.84375 304.6875 L 343.84375 70.3125 C 343.84375 30.890625 275.183594 0 187.546875 0 Z M 328.214844 226.5625 C 328.214844 252.421875 270.445312 281.25 187.546875 281.25 C 104.648438 281.25 46.878906 252.421875 46.878906 226.5625 L 46.878906 179.40625 C 71.933594 202.875 124.792969 218.75 187.546875 218.75 C 250.300781 218.75 303.160156 202.875 328.214844 179.40625 Z M 328.214844 148.4375 C 328.214844 174.296875 270.445312 203.125 187.546875 203.125 C 104.648438 203.125 46.878906 174.296875 46.878906 148.4375 L 46.878906 101.28125 C 71.933594 124.75 124.792969 140.625 187.546875 140.625 C 250.300781 140.625 303.160156 124.75 328.214844 101.28125 Z M 187.546875 15.625 C 270.445312 15.625 328.214844 44.453125 328.214844 70.3125 C 328.214844 96.171875 270.445312 125 187.546875 125 C 104.648438 125 46.878906 96.171875 46.878906 70.3125 C 46.878906 44.453125 104.648438 15.625 187.546875 15.625 Z M 187.546875 359.375 C 104.648438 359.375 46.878906 330.546875 46.878906 304.6875 L 46.878906 257.53125 C 71.933594 281 124.792969 296.875 187.546875 296.875 C 250.300781 296.875 303.160156 281 328.214844 257.53125 L 328.214844 304.6875 C 328.214844 330.546875 270.445312 359.375 187.546875 359.375 Z M 187.546875 359.375 " fill-opacity="1" fill-rule="nonzero"/></g></svg>