<svg xmlns="http://www.w3.org/2000/svg" xmlns:xlink="http://www.w3.org/1999/xlink" width="500" zoomAndPan="magnify" viewBox="0 0 375 374.999991" height="500" preserveAspectRatio="xMidYMid meet" version="1.0"><path fill="#000000" d="M 76.34375 76.636719 C 76.34375 70.203125 71.082031 64.9375 64.644531 64.9375 L 35.394531 64.9375 C 28.957031 64.9375 23.695312 70.203125 23.695312 76.636719 L 23.695312 105.890625 C 23.695312 112.324219 28.957031 117.589844 35.394531 117.589844 L 64.644531 117.589844 C 71.082031 117.589844 76.34375 112.324219 76.34375 105.890625 Z M 76.34375 76.636719 " fill-opacity="1" fill-rule="nonzero"/><path fill="#000000" d="M 140.699219 76.636719 C 140.699219 70.203125 135.433594 64.9375 128.996094 64.9375 L 99.746094 64.9375 C 93.3125 64.9375 88.046875 70.203125 88.046875 76.636719 L 88.046875 105.890625 C 88.046875 112.324219 93.3125 117.589844 99.746094 117.589844 L 128.996094 117.589844 C 135.433594 117.589844 140.699219 112.324219 140.699219 105.890625 Z M 99.746094 105.890625 L 99.746094 76.636719 L 128.996094 76.636719 L 128.996094 105.890625 Z M 99.746094 105.890625 " fill-opacity="1" fill-rule="nonzero"/><path fill="#000000" d="M 76.34375 140.992188 C 76.34375 134.554688 71.082031 129.289062 64.644531 129.289062 L 35.394531 129.289062 C 28.957031 129.289062 23.695312 134.554688 23.695312 140.992188 L 23.695312 170.242188 C 23.695312 176.675781 28.957031 181.941406 35.394531 181.941406 L 64.644531 181.941406 C 71.082031 181.941406 76.34375 176.675781 76.34375 170.242188 Z M 35.394531 170.242188 L 35.394531 140.992188 L 64.644531 140.992188 L 64.644531 170.242188 Z M 35.394531 170.242188 " fill-opacity="1" fill-rule="nonzero"/><path fill="#000000" d="M 140.699219 140.992188 C 140.699219 134.554688 135.433594 129.289062 128.996094 129.289062 L 99.746094 129.289062 C 93.3125 129.289062 88.046875 134.554688 88.046875 140.992188 L 88.046875 170.242188 C 88.046875 176.675781 93.3125 181.941406 99.746094 181.941406 L 128.996094 181.941406 C 135.433594 181.941406 140.699219 176.675781 140.699219 170.242188 Z M 140.699219 140.992188 " fill-opacity="1" fill-rule="nonzero"/><path fill="#000000" d="M 347.503906 41.246094 C 348.675781 38.320312 348.675781 35.394531 347.503906 32.46875 L 336.679688 7.3125 C 335.511719 4.679688 333.171875 2.339844 330.539062 1.171875 C 327.613281 0 324.6875 0 321.761719 1.171875 L 296.605469 12.285156 C 293.972656 13.457031 291.632812 15.796875 290.464844 18.429688 C 289.292969 21.351562 289.292969 24.277344 290.464844 27.203125 L 301.285156 52.359375 C 302.457031 54.992188 304.796875 57.332031 307.429688 58.503906 C 308.890625 59.085938 310.0625 59.378906 311.523438 59.378906 C 312.988281 59.378906 314.449219 59.085938 315.914062 58.503906 L 341.070312 47.679688 C 344.285156 46.21875 346.332031 43.875 347.503906 41.246094 Z M 347.503906 41.246094 " fill-opacity="1" fill-rule="nonzero"/><path fill="#000000" d="M 325.566406 125.488281 C 330.539062 121.390625 331.125 113.785156 326.734375 109.105469 L 307.722656 86.875 C 305.675781 84.535156 302.75 83.074219 299.824219 82.78125 C 296.605469 82.488281 293.683594 83.660156 291.339844 85.707031 L 269.109375 104.71875 C 264.136719 108.8125 263.554688 116.417969 267.941406 121.101562 L 286.953125 143.332031 C 289 145.671875 291.925781 147.132812 294.851562 147.425781 C 295.144531 147.425781 295.4375 147.425781 295.730469 147.425781 C 298.65625 147.425781 301.285156 146.546875 303.335938 144.5 Z M 295.730469 135.726562 L 276.714844 113.496094 L 298.945312 94.480469 L 317.960938 116.710938 Z M 295.730469 135.726562 " fill-opacity="1" fill-rule="nonzero"/><path fill="#000000" d="M 231.667969 74.882812 L 258.582031 86.289062 C 264.429688 88.632812 271.449219 86 273.789062 80.148438 L 285.199219 53.238281 C 287.832031 47.386719 284.90625 40.367188 279.054688 38.027344 L 251.851562 26.324219 C 246.003906 23.695312 238.980469 26.617188 236.640625 32.46875 C 236.640625 32.46875 225.234375 59.378906 225.234375 59.378906 C 224.355469 61.425781 224.355469 63.476562 224.648438 65.523438 C 225.234375 69.617188 227.867188 73.128906 231.667969 74.882812 Z M 231.667969 74.882812 " fill-opacity="1" fill-rule="nonzero"/><path fill="#000000" d="M 288.417969 174.335938 C 286.078125 171.996094 283.152344 170.828125 280.226562 170.828125 C 277.300781 170.828125 274.082031 171.996094 272.035156 174.335938 L 251.265625 195.105469 C 248.925781 197.445312 247.757812 200.371094 247.757812 203.296875 C 247.757812 206.511719 248.925781 209.4375 251.265625 211.484375 L 272.035156 232.253906 C 274.375 234.59375 277.300781 235.765625 280.226562 235.765625 C 283.152344 235.765625 286.367188 234.59375 288.417969 232.253906 L 309.183594 211.484375 C 311.523438 209.144531 312.695312 206.222656 312.695312 203.296875 C 312.695312 200.078125 311.523438 197.152344 309.183594 195.105469 Z M 288.417969 174.335938 " fill-opacity="1" fill-rule="nonzero"/><path fill="#000000" d="M 350.722656 138.652344 C 346.332031 134.261719 338.730469 134.261719 334.339844 138.652344 L 313.863281 159.125 C 309.476562 163.515625 309.476562 171.121094 313.863281 175.507812 L 334.339844 195.984375 C 336.679688 198.324219 339.3125 199.492188 342.53125 199.492188 C 345.75 199.492188 348.675781 198.324219 350.722656 195.984375 L 371.199219 175.507812 C 373.539062 173.167969 374.707031 170.535156 374.707031 167.316406 C 374.707031 164.097656 373.539062 161.175781 371.199219 159.125 Z M 350.722656 138.652344 " fill-opacity="1" fill-rule="nonzero"/><path fill="#000000" d="M 289 254.777344 C 287.832031 257.703125 287.832031 260.921875 289 263.84375 L 300.703125 290.757812 C 301.871094 293.683594 304.210938 295.730469 307.136719 296.898438 C 308.601562 297.484375 310.0625 297.777344 311.523438 297.777344 C 312.988281 297.777344 314.742188 297.484375 316.207031 296.898438 L 343.117188 285.199219 C 346.042969 284.027344 348.089844 281.6875 349.257812 278.761719 C 350.429688 275.839844 350.429688 272.621094 349.257812 269.695312 L 337.558594 242.785156 C 336.386719 239.859375 334.046875 237.8125 331.125 236.640625 C 328.199219 235.472656 324.980469 235.472656 322.054688 236.640625 L 295.144531 248.34375 C 292.511719 249.511719 290.171875 251.851562 289 254.777344 Z M 326.734375 247.464844 L 338.4375 274.375 L 311.523438 286.078125 L 299.824219 259.164062 Z M 326.734375 247.464844 " fill-opacity="1" fill-rule="nonzero"/><path fill="#000000" d="M 76.34375 205.34375 C 76.34375 198.90625 71.082031 193.644531 64.644531 193.644531 L 35.394531 193.644531 C 28.957031 193.644531 23.695312 198.90625 23.695312 205.34375 L 23.695312 234.59375 C 23.695312 241.03125 28.957031 246.292969 35.394531 246.292969 L 64.644531 246.292969 C 71.082031 246.292969 76.34375 241.03125 76.34375 234.59375 Z M 76.34375 205.34375 " fill-opacity="1" fill-rule="nonzero"/><path fill="#000000" d="M 140.699219 205.34375 C 140.699219 198.90625 135.433594 193.644531 128.996094 193.644531 L 99.746094 193.644531 C 93.3125 193.644531 88.046875 198.90625 88.046875 205.34375 L 88.046875 234.59375 C 88.046875 241.03125 93.3125 246.292969 99.746094 246.292969 L 128.996094 246.292969 C 135.433594 246.292969 140.699219 241.03125 140.699219 234.59375 Z M 99.746094 234.59375 L 99.746094 205.34375 L 128.996094 205.34375 L 128.996094 234.59375 Z M 99.746094 234.59375 " fill-opacity="1" fill-rule="nonzero"/><path fill="#000000" d="M 64.644531 257.996094 L 35.394531 257.996094 C 28.957031 257.996094 23.695312 263.261719 23.695312 269.695312 L 23.695312 298.945312 C 23.695312 305.382812 28.957031 310.648438 35.394531 310.648438 L 64.644531 310.648438 C 71.082031 310.648438 76.34375 305.382812 76.34375 298.945312 L 76.34375 269.695312 C 76.34375 263.261719 71.082031 257.996094 64.644531 257.996094 Z M 35.394531 298.945312 L 35.394531 269.695312 L 64.644531 269.695312 L 64.644531 298.945312 Z M 35.394531 298.945312 " fill-opacity="1" fill-rule="nonzero"/><path fill="#000000" d="M 128.996094 257.996094 L 99.746094 257.996094 C 93.3125 257.996094 88.046875 263.261719 88.046875 269.695312 L 88.046875 298.945312 C 88.046875 305.382812 93.3125 310.648438 99.746094 310.648438 L 128.996094 310.648438 C 135.433594 310.648438 140.699219 305.382812 140.699219 298.945312 L 140.699219 269.695312 C 140.699219 263.261719 135.433594 257.996094 128.996094 257.996094 Z M 128.996094 257.996094 " fill-opacity="1" fill-rule="nonzero"/><path fill="#000000" d="M 152.398438 298.945312 C 152.398438 305.382812 157.664062 310.648438 164.097656 310.648438 L 193.351562 310.648438 C 199.785156 310.648438 204.757812 305.675781 205.050781 299.53125 L 197.445312 296.3125 C 195.984375 295.730469 194.8125 294.851562 193.644531 294.265625 L 193.644531 299.238281 L 164.097656 299.238281 L 164.097656 269.695312 L 183.40625 269.695312 C 183.699219 268.234375 183.988281 266.769531 184.574219 265.601562 L 187.792969 257.996094 L 164.097656 257.996094 C 157.664062 257.996094 152.398438 263.261719 152.398438 269.695312 Z M 152.398438 298.945312 " fill-opacity="1" fill-rule="nonzero"/><path fill="#000000" d="M 152.398438 234.59375 C 152.398438 241.03125 157.664062 246.292969 164.097656 246.292969 L 192.765625 246.292969 L 195.984375 238.691406 C 197.738281 234.300781 200.957031 230.5 204.757812 228.160156 L 204.757812 205.34375 C 204.757812 198.90625 199.492188 193.644531 193.058594 193.644531 L 164.097656 193.644531 C 157.664062 193.644531 152.398438 198.90625 152.398438 205.34375 Z M 152.398438 234.59375 " fill-opacity="1" fill-rule="nonzero"/><path fill="#000000" d="M 196.859375 122.269531 L 185.453125 149.179688 C 182.820312 155.03125 185.746094 162.050781 191.59375 164.390625 C 191.59375 164.390625 218.507812 175.800781 218.507812 175.800781 C 224.355469 178.140625 231.375 175.507812 233.714844 169.65625 L 245.125 142.746094 C 247.757812 136.894531 244.832031 129.875 238.980469 127.535156 C 238.980469 127.535156 212.070312 116.128906 212.070312 116.128906 C 206.511719 113.496094 199.199219 116.710938 196.859375 122.269531 Z M 223.1875 165.269531 L 196.273438 153.859375 L 207.683594 126.949219 L 234.59375 138.359375 Z M 223.1875 165.269531 " fill-opacity="1" fill-rule="nonzero"/><path fill="#000000" d="M 244.246094 290.464844 L 255.65625 263.554688 C 258.289062 257.703125 255.363281 250.683594 249.511719 248.34375 L 222.601562 236.933594 C 219.675781 235.765625 216.457031 235.765625 213.535156 236.933594 C 210.609375 238.105469 208.269531 240.445312 207.097656 243.371094 C 207.097656 243.371094 195.105469 272.035156 195.105469 273.207031 C 194.519531 277.886719 196.566406 282.566406 200.371094 284.90625 C 200.957031 285.199219 229.035156 297.191406 229.035156 297.191406 C 234.59375 299.238281 241.613281 296.3125 244.246094 290.464844 Z M 244.246094 290.464844 " fill-opacity="1" fill-rule="nonzero"/><path fill="#000000" d="M 35.394531 375 L 193.351562 375 C 212.65625 375 228.453125 359.203125 228.453125 339.898438 L 228.453125 308.890625 C 226.988281 308.601562 225.527344 308.015625 224.355469 307.722656 L 216.75 304.503906 L 216.75 316.789062 C 216.75 329.660156 206.222656 340.191406 193.351562 340.191406 L 35.394531 340.191406 C 22.523438 340.191406 11.992188 329.660156 11.992188 316.789062 L 11.992188 35.6875 C 11.992188 22.816406 22.523438 12.285156 35.394531 12.285156 L 70.789062 12.285156 L 76.636719 19.304688 C 85.707031 29.542969 98.578125 35.6875 111.445312 35.6875 C 124.316406 35.6875 137.1875 29.542969 146.253906 19.304688 L 152.105469 12.285156 L 193.351562 12.285156 C 206.222656 12.285156 216.75 22.816406 216.75 35.6875 L 216.75 49.726562 L 225.820312 28.082031 C 226.113281 27.203125 226.402344 26.617188 226.988281 26.035156 C 222.601562 11.117188 209.144531 0.585938 193.351562 0.585938 L 35.394531 0.585938 C 16.089844 0.585938 0.292969 16.378906 0.292969 35.6875 L 0.292969 339.898438 C 0.292969 359.203125 16.089844 375 35.394531 375 Z M 35.394531 351.597656 L 193.351562 351.597656 C 202.125 351.597656 210.316406 348.382812 216.457031 342.824219 C 214.996094 354.523438 205.050781 363.300781 193.351562 363.300781 L 35.394531 363.300781 C 23.402344 363.300781 13.75 354.230469 12.285156 342.824219 C 18.429688 348.382812 26.617188 351.597656 35.394531 351.597656 Z M 136.601562 12.285156 C 129.875 19.890625 120.808594 23.984375 111.445312 23.984375 C 102.085938 23.984375 93.3125 19.890625 86.289062 12.285156 Z M 136.601562 12.285156 " fill-opacity="1" fill-rule="nonzero"/><path fill="#000000" d="M 152.398438 170.242188 C 152.398438 176.675781 157.664062 181.941406 164.097656 181.941406 L 193.351562 181.941406 C 195.398438 181.941406 197.445312 181.355469 199.199219 180.480469 L 187.207031 175.507812 C 184.28125 174.335938 181.648438 172.582031 179.601562 170.242188 L 164.097656 170.242188 L 164.097656 140.992188 L 176.382812 140.992188 L 181.355469 129.289062 L 164.097656 129.289062 C 157.664062 129.289062 152.398438 134.554688 152.398438 140.992188 Z M 152.398438 170.242188 " fill-opacity="1" fill-rule="nonzero"/><path fill="#000000" d="M 193.351562 64.9375 L 164.097656 64.9375 C 157.664062 64.9375 152.398438 70.203125 152.398438 76.636719 L 152.398438 105.890625 C 152.398438 112.324219 157.664062 117.589844 164.097656 117.589844 L 186.039062 117.589844 C 189.253906 109.691406 196.566406 104.425781 205.050781 103.550781 L 205.050781 76.636719 C 205.050781 70.203125 199.785156 64.9375 193.351562 64.9375 Z M 193.351562 64.9375 " fill-opacity="1" fill-rule="nonzero"/><path fill="#000000" d="M 216.75 77.222656 L 216.75 105.304688 L 228.453125 110.277344 L 228.453125 86.289062 L 226.988281 85.414062 C 222.894531 83.660156 219.382812 80.734375 216.75 77.222656 Z M 216.75 77.222656 " fill-opacity="1" fill-rule="nonzero"/><path fill="#000000" d="M 216.75 224.355469 C 217.042969 224.355469 217.335938 224.355469 217.628906 224.355469 C 220.847656 224.355469 223.769531 224.941406 226.695312 226.113281 L 228.453125 226.695312 L 228.453125 187.792969 C 226.695312 188.085938 224.941406 188.378906 223.1875 188.378906 C 220.847656 188.378906 218.796875 188.085938 216.75 187.5 Z M 216.75 224.355469 " fill-opacity="1" fill-rule="nonzero"/></svg>