<svg xmlns="http://www.w3.org/2000/svg" xmlns:xlink="http://www.w3.org/1999/xlink" width="500" zoomAndPan="magnify" viewBox="0 0 375 374.999991" height="500" preserveAspectRatio="xMidYMid meet" version="1.0"><defs><g/><clipPath id="b15447be54"><path d="M 12 112.5 L 155 112.5 L 155 262.5 L 12 262.5 Z M 12 112.5 " clip-rule="nonzero"/></clipPath></defs><path fill="#e2dccc" d="M 116.652344 234.589844 C 129.148438 234.589844 140.824219 230.804688 150.523438 224.382812 C 137.78125 246.28125 114.1875 260.9375 87.058594 260.9375 C 46.527344 260.9375 13.722656 228.003906 13.722656 187.5 C 13.722656 146.914062 46.527344 114.0625 87.058594 114.0625 C 90.675781 114.0625 94.210938 114.3125 97.664062 114.804688 C 73.082031 122.789062 55.324219 145.925781 55.324219 173.175781 C 55.324219 207.09375 82.78125 234.589844 116.652344 234.589844 Z M 116.652344 234.589844 " fill-opacity="1" fill-rule="nonzero"/><path fill="#c6baa3" d="M 150.441406 224.382812 C 140.742188 230.804688 129.066406 234.589844 116.570312 234.589844 C 82.699219 234.589844 55.242188 207.09375 55.242188 173.175781 C 55.242188 173.175781 49.320312 214.914062 72.011719 231.875 C 94.292969 248.503906 125.777344 248.75 150.441406 224.382812 Z M 150.441406 224.382812 " fill-opacity="1" fill-rule="nonzero"/><g clip-path="url(#b15447be54)"><path fill="#000000" d="M 87.058594 262.5 C 45.785156 262.5 12.160156 228.828125 12.160156 187.5 C 12.160156 146.171875 45.785156 112.5 87.058594 112.5 C 90.59375 112.5 94.210938 112.746094 97.828125 113.324219 L 104.238281 114.230469 L 98.074219 116.203125 C 73.410156 124.273438 56.800781 147.160156 56.800781 173.175781 C 56.800781 206.1875 83.605469 233.027344 116.570312 233.027344 C 128.410156 233.027344 139.753906 229.570312 149.539062 223.066406 L 154.964844 219.441406 L 151.675781 225.042969 C 138.359375 248.175781 113.613281 262.5 87.058594 262.5 Z M 87.058594 115.546875 C 47.429688 115.546875 15.203125 147.816406 15.203125 187.5 C 15.203125 227.183594 47.429688 259.453125 87.058594 259.453125 C 110.40625 259.453125 132.355469 247.929688 145.757812 228.992188 C 136.796875 233.683594 126.847656 236.15625 116.652344 236.15625 C 82.042969 236.15625 53.84375 207.917969 53.84375 173.257812 C 53.84375 148.066406 68.640625 125.753906 91.167969 115.710938 C 89.769531 115.546875 88.371094 115.546875 87.058594 115.546875 Z M 87.058594 115.546875 " fill-opacity="1" fill-rule="nonzero"/></g><g fill="#000000" fill-opacity="1"><g transform="translate(83.684039, 199.420581)"><g><path d="M 40.703125 -47.59375 C 42.523438 -47.59375 43.859375 -47.453125 44.703125 -47.171875 C 45.546875 -46.890625 46.128906 -46.398438 46.453125 -45.703125 C 46.773438 -45.015625 46.9375 -43.929688 46.9375 -42.453125 L 46.9375 -6.109375 C 46.9375 -3.679688 46.144531 -1.925781 44.5625 -0.84375 C 42.976562 0.238281 41 0.78125 38.625 0.78125 C 36.925781 0.78125 35.273438 0.628906 33.671875 0.328125 C 31.078125 -4.304688 28.085938 -9.398438 24.703125 -14.953125 C 21.328125 -20.503906 18.207031 -25.378906 15.34375 -29.578125 L 15.34375 0.390625 C 14.863281 0.515625 14.273438 0.609375 13.578125 0.671875 C 12.890625 0.742188 12.175781 0.78125 11.4375 0.78125 C 9.40625 0.78125 7.898438 0.640625 6.921875 0.359375 C 5.953125 0.078125 5.289062 -0.40625 4.9375 -1.09375 C 4.59375 -1.789062 4.421875 -2.878906 4.421875 -4.359375 L 4.421875 -42.78125 L 2.34375 -47.140625 C 2.945312 -47.304688 3.820312 -47.453125 4.96875 -47.578125 C 6.125 -47.710938 7.285156 -47.78125 8.453125 -47.78125 C 10.179688 -47.78125 11.566406 -47.660156 12.609375 -47.421875 C 13.648438 -47.191406 14.59375 -46.71875 15.4375 -46 C 16.28125 -45.28125 17.203125 -44.207031 18.203125 -42.78125 C 20.671875 -39.351562 23.507812 -35.113281 26.71875 -30.0625 C 29.925781 -25.019531 33.023438 -20.003906 36.015625 -15.015625 L 36.015625 -47.265625 C 37.316406 -47.484375 38.878906 -47.59375 40.703125 -47.59375 Z M 40.703125 -47.59375 "/></g></g></g><g fill="#000000" fill-opacity="1"><g transform="translate(135.043661, 199.420581)"><g><path d="M 49.671875 0 C 48.972656 0.125 48.113281 0.226562 47.09375 0.3125 C 46.082031 0.40625 45.207031 0.453125 44.46875 0.453125 C 42.738281 0.453125 41.351562 0.320312 40.3125 0.0625 C 39.269531 -0.195312 38.378906 -0.679688 37.640625 -1.390625 C 36.898438 -2.109375 36.273438 -3.160156 35.765625 -4.546875 L 33.609375 -10.265625 L 13.65625 -10.265625 C 12.53125 -6.890625 11.617188 -3.46875 10.921875 0 C 10.222656 0.125 9.363281 0.226562 8.34375 0.3125 C 7.332031 0.40625 6.4375 0.453125 5.65625 0.453125 C 2.144531 0.453125 0.390625 -0.738281 0.390625 -3.125 C 0.390625 -3.945312 0.59375 -5.113281 1 -6.625 C 1.414062 -8.144531 1.992188 -9.816406 2.734375 -11.640625 C 4.503906 -16.359375 6.925781 -21.71875 10 -27.71875 C 13.082031 -33.726562 16.117188 -39.050781 19.109375 -43.6875 L 17.875 -47.390625 C 18.53125 -47.523438 19.332031 -47.632812 20.28125 -47.71875 C 21.238281 -47.800781 22.109375 -47.84375 22.890625 -47.84375 C 24.878906 -47.84375 26.414062 -47.613281 27.5 -47.15625 C 28.582031 -46.707031 29.492188 -45.921875 30.234375 -44.796875 C 30.972656 -43.671875 31.859375 -41.894531 32.890625 -39.46875 Z M 30.171875 -19.3125 L 24.1875 -35.046875 C 21.5 -29.890625 19.09375 -24.644531 16.96875 -19.3125 Z M 30.171875 -19.3125 "/></g></g></g><g fill="#000000" fill-opacity="1"><g transform="translate(185.038029, 199.420581)"><g><path d="M 40.890625 -46.8125 C 40.984375 -46.289062 41.0625 -45.640625 41.125 -44.859375 C 41.1875 -44.078125 41.21875 -43.363281 41.21875 -42.71875 C 41.21875 -41.019531 41.078125 -39.75 40.796875 -38.90625 C 40.515625 -38.0625 40.023438 -37.476562 39.328125 -37.15625 C 38.640625 -36.832031 37.601562 -36.671875 36.21875 -36.671875 L 27.046875 -36.671875 L 27.046875 0.1875 C 26.660156 0.28125 25.957031 0.367188 24.9375 0.453125 C 23.914062 0.535156 23.015625 0.578125 22.234375 0.578125 C 20.148438 0.578125 18.617188 0.4375 17.640625 0.15625 C 16.671875 -0.125 16.015625 -0.609375 15.671875 -1.296875 C 15.328125 -1.992188 15.15625 -3.097656 15.15625 -4.609375 L 15.15625 -36.671875 L 1.234375 -36.671875 C 1.148438 -37.148438 1.070312 -37.773438 1 -38.546875 C 0.9375 -39.328125 0.90625 -40.066406 0.90625 -40.765625 C 0.90625 -42.453125 1.046875 -43.71875 1.328125 -44.5625 C 1.609375 -45.414062 2.09375 -46.003906 2.78125 -46.328125 C 3.476562 -46.648438 4.5 -46.8125 5.84375 -46.8125 Z M 40.890625 -46.8125 "/></g></g></g><g fill="#000000" fill-opacity="1"><g transform="translate(227.165917, 199.420581)"><g><path d="M 40.890625 -46.8125 C 40.984375 -46.289062 41.0625 -45.640625 41.125 -44.859375 C 41.1875 -44.078125 41.21875 -43.363281 41.21875 -42.71875 C 41.21875 -41.019531 41.078125 -39.75 40.796875 -38.90625 C 40.515625 -38.0625 40.023438 -37.476562 39.328125 -37.15625 C 38.640625 -36.832031 37.601562 -36.671875 36.21875 -36.671875 L 27.046875 -36.671875 L 27.046875 0.1875 C 26.660156 0.28125 25.957031 0.367188 24.9375 0.453125 C 23.914062 0.535156 23.015625 0.578125 22.234375 0.578125 C 20.148438 0.578125 18.617188 0.4375 17.640625 0.15625 C 16.671875 -0.125 16.015625 -0.609375 15.671875 -1.296875 C 15.328125 -1.992188 15.15625 -3.097656 15.15625 -4.609375 L 15.15625 -36.671875 L 1.234375 -36.671875 C 1.148438 -37.148438 1.070312 -37.773438 1 -38.546875 C 0.9375 -39.328125 0.90625 -40.066406 0.90625 -40.765625 C 0.90625 -42.453125 1.046875 -43.71875 1.328125 -44.5625 C 1.609375 -45.414062 2.09375 -46.003906 2.78125 -46.328125 C 3.476562 -46.648438 4.5 -46.8125 5.84375 -46.8125 Z M 40.890625 -46.8125 "/></g></g></g><g fill="#000000" fill-opacity="1"><g transform="translate(269.293805, 199.420581)"><g><path d="M 39.796875 -9.421875 C 39.878906 -8.898438 39.953125 -8.238281 40.015625 -7.4375 C 40.078125 -6.632812 40.109375 -5.820312 40.109375 -5 C 40.109375 -3.65625 39.96875 -2.625 39.6875 -1.90625 C 39.40625 -1.195312 38.925781 -0.703125 38.25 -0.421875 C 37.582031 -0.140625 36.625 0 35.375 0 L 13.0625 0 C 10.988281 0 9.421875 -0.203125 8.359375 -0.609375 C 7.296875 -1.023438 6.554688 -1.726562 6.140625 -2.71875 C 5.734375 -3.71875 5.53125 -5.195312 5.53125 -7.15625 L 5.53125 -37.578125 L 0.90625 -37.578125 C 0.738281 -39.222656 0.65625 -40.585938 0.65625 -41.671875 C 0.65625 -43.015625 0.816406 -44.054688 1.140625 -44.796875 C 1.460938 -45.535156 1.976562 -46.054688 2.6875 -46.359375 C 3.40625 -46.660156 4.414062 -46.8125 5.71875 -46.8125 L 38.875 -46.8125 C 38.96875 -46.375 39.035156 -45.796875 39.078125 -45.078125 C 39.117188 -44.367188 39.140625 -43.625 39.140625 -42.84375 C 39.140625 -41.238281 39.007812 -40.054688 38.75 -39.296875 C 38.488281 -38.546875 38.03125 -38.039062 37.375 -37.78125 C 36.726562 -37.519531 35.734375 -37.390625 34.390625 -37.390625 L 16.78125 -37.390625 L 16.78125 -28.484375 L 32.5 -28.484375 C 32.59375 -28.046875 32.671875 -27.507812 32.734375 -26.875 C 32.796875 -26.25 32.828125 -25.59375 32.828125 -24.90625 C 32.828125 -23.46875 32.675781 -22.335938 32.375 -21.515625 C 32.070312 -20.691406 31.5625 -20.09375 30.84375 -19.71875 C 30.132812 -19.351562 29.148438 -19.171875 27.890625 -19.171875 L 16.78125 -19.171875 L 16.78125 -9.421875 Z M 39.796875 -9.421875 "/></g></g></g><g fill="#000000" fill-opacity="1"><g transform="translate(311.681748, 199.420581)"><g><path d="M 40.703125 -47.59375 C 42.523438 -47.59375 43.859375 -47.453125 44.703125 -47.171875 C 45.546875 -46.890625 46.128906 -46.398438 46.453125 -45.703125 C 46.773438 -45.015625 46.9375 -43.929688 46.9375 -42.453125 L 46.9375 -6.109375 C 46.9375 -3.679688 46.144531 -1.925781 44.5625 -0.84375 C 42.976562 0.238281 41 0.78125 38.625 0.78125 C 36.925781 0.78125 35.273438 0.628906 33.671875 0.328125 C 31.078125 -4.304688 28.085938 -9.398438 24.703125 -14.953125 C 21.328125 -20.503906 18.207031 -25.378906 15.34375 -29.578125 L 15.34375 0.390625 C 14.863281 0.515625 14.273438 0.609375 13.578125 0.671875 C 12.890625 0.742188 12.175781 0.78125 11.4375 0.78125 C 9.40625 0.78125 7.898438 0.640625 6.921875 0.359375 C 5.953125 0.078125 5.289062 -0.40625 4.9375 -1.09375 C 4.59375 -1.789062 4.421875 -2.878906 4.421875 -4.359375 L 4.421875 -42.78125 L 2.34375 -47.140625 C 2.945312 -47.304688 3.820312 -47.453125 4.96875 -47.578125 C 6.125 -47.710938 7.285156 -47.78125 8.453125 -47.78125 C 10.179688 -47.78125 11.566406 -47.660156 12.609375 -47.421875 C 13.648438 -47.191406 14.59375 -46.71875 15.4375 -46 C 16.28125 -45.28125 17.203125 -44.207031 18.203125 -42.78125 C 20.671875 -39.351562 23.507812 -35.113281 26.71875 -30.0625 C 29.925781 -25.019531 33.023438 -20.003906 36.015625 -15.015625 L 36.015625 -47.265625 C 37.316406 -47.484375 38.878906 -47.59375 40.703125 -47.59375 Z M 40.703125 -47.59375 "/></g></g></g></svg>