<svg xmlns="http://www.w3.org/2000/svg" xmlns:xlink="http://www.w3.org/1999/xlink" zoomAndPan="magnify" preserveAspectRatio="xMidYMid meet" version="1.0" viewBox="20.75 155.07 333.47 60.42"><defs><g/></defs><g fill="#ffffff" fill-opacity="1" style="--darkreader-inline-fill: #181a1b;" data-darkreader-inline-fill=""><g transform="translate(14.386448, 215.478246)"><g><path d="M 55.128906 -60.390625 L 55.128906 -17.167969 L 12.855469 -60.390625 L 6.382812 -60.390625 L 6.382812 0 L 8.453125 0 L 8.453125 -46.5 L 54.265625 0 L 57.199219 0 L 57.199219 -60.390625 Z M 55.128906 -60.390625 "/></g></g></g><g fill="#ffffff" fill-opacity="1" style="--darkreader-inline-fill: #181a1b;" data-darkreader-inline-fill=""><g transform="translate(77.968193, 215.478246)"><g><path d="M 44.949219 0 L 58.925781 0 L 32.523438 -60.390625 L 27.953125 -60.390625 L 1.464844 0 L 3.882812 0 L 10.957031 -16.304688 L 37.875 -16.304688 Z M 11.734375 -18.03125 L 24.5 -47.277344 L 37.183594 -18.03125 Z M 11.734375 -18.03125 "/></g></g></g><g fill="#ffffff" fill-opacity="1" style="--darkreader-inline-fill: #181a1b;" data-darkreader-inline-fill=""><g transform="translate(138.357906, 215.478246)"><g><path d="M 51.332031 -60.390625 L 1.378906 -60.390625 L 1.378906 -58.667969 L 19.757812 -58.667969 L 19.757812 0 L 32.957031 0 L 32.957031 -58.667969 L 51.332031 -58.667969 Z M 51.332031 -60.390625 "/></g></g></g><g fill="#ffffff" fill-opacity="1" style="--darkreader-inline-fill: #181a1b;" data-darkreader-inline-fill=""><g transform="translate(191.069503, 215.478246)"><g><path d="M 51.332031 -60.390625 L 1.378906 -60.390625 L 1.378906 -58.667969 L 19.757812 -58.667969 L 19.757812 0 L 32.957031 0 L 32.957031 -58.667969 L 51.332031 -58.667969 Z M 51.332031 -60.390625 "/></g></g></g><g fill="#ffffff" fill-opacity="1" style="--darkreader-inline-fill: #181a1b;" data-darkreader-inline-fill=""><g transform="translate(243.7811, 215.478246)"><g><path d="M 19.585938 -1.726562 L 19.585938 -29.765625 L 43.136719 -29.765625 L 43.136719 -31.488281 L 19.585938 -31.488281 L 19.585938 -58.667969 L 50.039062 -58.667969 L 50.039062 -60.390625 L 6.382812 -60.390625 L 6.382812 0 L 50.902344 0 L 50.902344 -1.726562 Z M 19.585938 -1.726562 "/></g></g></g><g fill="#ffffff" fill-opacity="1" style="--darkreader-inline-fill: #181a1b;" data-darkreader-inline-fill=""><g transform="translate(297.010313, 215.478246)"><g><path d="M 55.128906 -60.390625 L 55.128906 -17.167969 L 12.855469 -60.390625 L 6.382812 -60.390625 L 6.382812 0 L 8.453125 0 L 8.453125 -46.5 L 54.265625 0 L 57.199219 0 L 57.199219 -60.390625 Z M 55.128906 -60.390625 "/></g></g></g></svg>