<svg xmlns="http://www.w3.org/2000/svg" xmlns:xlink="http://www.w3.org/1999/xlink" width="500" zoomAndPan="magnify" viewBox="0 0 375 374.999991" height="500" preserveAspectRatio="xMidYMid meet" version="1.0"><defs><clipPath id="0fc98dbcb8"><path d="M 0 6.476562 L 375 6.476562 L 375 368.726562 L 0 368.726562 Z M 0 6.476562 " clip-rule="nonzero"/></clipPath></defs><g clip-path="url(#0fc98dbcb8)"><path fill="#000000" d="M 30.304688 38.949219 L 30.304688 38.433594 C 30.304688 35.109375 33 32.414062 36.320312 32.414062 C 39.644531 32.414062 42.339844 35.109375 42.339844 38.433594 L 42.339844 38.949219 C 42.339844 42.273438 39.644531 44.96875 36.320312 44.96875 C 33 44.96875 30.304688 42.273438 30.304688 38.949219 Z M 62.402344 44.445312 C 65.722656 44.445312 68.417969 41.746094 68.417969 38.421875 L 68.417969 37.910156 C 68.417969 34.585938 65.722656 31.886719 62.402344 31.886719 C 59.078125 31.886719 56.382812 34.585938 56.382812 37.910156 L 56.382812 38.421875 C 56.382812 41.746094 59.078125 44.445312 62.402344 44.445312 Z M 88.480469 44.445312 C 91.800781 44.445312 94.496094 41.746094 94.496094 38.421875 L 94.496094 37.910156 C 94.496094 34.585938 91.800781 31.886719 88.480469 31.886719 C 85.15625 31.886719 82.460938 34.585938 82.460938 37.910156 L 82.460938 38.421875 C 82.460938 41.746094 85.15625 44.445312 88.480469 44.445312 Z M 120.339844 142.042969 C 117.207031 140.992188 113.800781 142.6875 112.753906 145.824219 L 101.515625 179.324219 L 90.277344 145.835938 C 89.695312 144.113281 88.347656 142.667969 86.496094 142.050781 C 83.359375 141.003906 79.953125 142.699219 78.90625 145.835938 L 67.667969 179.335938 L 56.429688 145.835938 C 55.382812 142.6875 51.976562 140.992188 48.839844 142.050781 C 45.707031 143.101562 44.003906 146.507812 45.0625 149.644531 L 61.988281 200.101562 C 63.035156 203.246094 66.441406 204.941406 69.578125 203.882812 C 71.429688 203.265625 72.777344 201.824219 73.359375 200.101562 L 84.597656 166.601562 L 95.835938 200.101562 C 96.882812 203.246094 100.289062 204.941406 103.421875 203.882812 C 105.277344 203.265625 106.625 201.824219 107.203125 200.101562 L 124.121094 149.644531 C 125.179688 146.5 123.476562 143.101562 120.339844 142.042969 Z M 206.375 142.042969 C 203.238281 140.992188 199.832031 142.6875 198.785156 145.824219 L 187.546875 179.324219 L 176.308594 145.824219 C 175.726562 144.101562 174.382812 142.660156 172.527344 142.042969 C 169.394531 140.992188 165.988281 142.6875 164.9375 145.824219 L 153.699219 179.324219 L 142.460938 145.824219 C 141.414062 142.679688 138.007812 140.984375 134.875 142.042969 C 131.738281 143.089844 130.035156 146.5 131.09375 149.636719 L 148.019531 200.09375 C 149.070312 203.238281 152.476562 204.933594 155.609375 203.875 C 157.460938 203.257812 158.808594 201.816406 159.390625 200.09375 L 170.628906 166.59375 L 181.867188 200.09375 C 182.914062 203.238281 186.320312 204.933594 189.457031 203.875 C 191.308594 203.257812 192.65625 201.816406 193.234375 200.09375 L 210.15625 149.636719 C 211.210938 146.5 209.507812 143.101562 206.375 142.042969 Z M 241.632812 203.882812 C 243.484375 203.265625 244.832031 201.824219 245.414062 200.101562 L 256.652344 166.601562 L 267.890625 200.101562 C 268.9375 203.246094 272.34375 204.941406 275.480469 203.882812 C 277.332031 203.265625 278.679688 201.824219 279.257812 200.101562 L 296.175781 149.644531 C 297.226562 146.507812 295.53125 143.101562 292.398438 142.050781 C 289.261719 141.003906 285.855469 142.699219 284.808594 145.835938 L 273.570312 179.335938 L 262.332031 145.835938 C 261.75 144.113281 260.402344 142.667969 258.550781 142.050781 C 255.417969 141.003906 252.011719 142.699219 250.960938 145.835938 L 239.722656 179.335938 L 228.484375 145.835938 C 227.4375 142.6875 224.03125 140.992188 220.898438 142.050781 C 217.761719 143.101562 216.058594 146.507812 217.117188 149.644531 L 234.042969 200.101562 C 235.09375 203.238281 238.496094 204.933594 241.632812 203.882812 Z M 372.609375 336.070312 L 342.308594 366.386719 C 339.960938 368.738281 336.152344 368.738281 333.804688 366.386719 L 303.1875 335.75 L 279.257812 359.691406 C 276.910156 362.042969 273.101562 362.042969 270.753906 359.691406 C 270.015625 358.953125 269.507812 358.074219 269.238281 357.144531 L 251.242188 297.710938 L 6.085938 297.710938 C 2.765625 297.710938 0.0703125 295.011719 0.0703125 291.6875 L 0.0703125 64.695312 C 0.0703125 64.695312 0.0703125 64.6875 0.0703125 64.6875 C 0.0703125 64.6875 0.0703125 64.675781 0.0703125 64.675781 L 0.0703125 12.496094 C 0.0703125 9.171875 2.765625 6.476562 6.085938 6.476562 L 335.160156 6.476562 C 338.480469 6.476562 341.175781 9.171875 341.175781 12.496094 L 341.175781 256.230469 L 363.410156 262.972656 C 366.59375 263.929688 368.386719 267.289062 367.425781 270.472656 C 367.117188 271.492188 366.5625 272.363281 365.851562 273.058594 L 341.992188 296.933594 L 372.609375 327.566406 C 374.957031 329.910156 374.957031 333.730469 372.609375 336.070312 Z M 12.105469 18.519531 L 12.105469 58.664062 L 329.144531 58.664062 L 329.144531 18.519531 Z M 247.601562 285.660156 L 231.59375 232.789062 C 230.636719 229.605469 232.433594 226.242188 235.605469 225.289062 C 236.785156 224.933594 237.984375 224.960938 239.085938 225.289062 L 329.132812 252.582031 L 329.132812 70.707031 L 12.105469 70.707031 L 12.105469 285.667969 L 247.601562 285.667969 Z M 359.84375 331.820312 L 329.226562 301.183594 C 326.878906 298.832031 326.878906 295.023438 329.226562 292.671875 L 350.308594 271.578125 L 333.4375 266.464844 C 333.402344 266.457031 333.355469 266.4375 333.316406 266.429688 L 246.367188 240.070312 L 261.441406 289.875 C 261.453125 289.890625 261.453125 289.910156 261.460938 289.929688 L 277.855469 344.074219 L 298.9375 322.980469 C 301.285156 320.628906 305.09375 320.628906 307.445312 322.980469 L 338.0625 353.617188 Z M 359.84375 331.820312 " fill-opacity="1" fill-rule="nonzero"/></g></svg>